<svg width="96" height="25" viewBox="0 0 96 25" xmlns="http://www.w3.org/2000/svg"><title>m-light text3</title><g fill="#D8D8D8" fill-rule="evenodd"><text font-family="Arial" font-size="11" transform="translate(0 -.5)"><tspan x="28" y="16">megagroup.ru</tspan></text><path d="M7 8.368V8H2.018l-.221 1h5.046L7 8.368zM6.595 10h-5.02l-.22 1h4.992l.248-1zM6.1 12H1.134l-.221 1H5.85l.248-1zM.692 14l-.405 1.64h4.884L5.603 14H.692z"/><path d="M.077 18.037l-.017.08c-.318 1.55.661 3.133 2.187 3.537l9.637 2.555a2.675 2.675 0 0 0 3.34-2.072l1.95-9.49-2.042 3.963c-.4.774-.828 1.427-2.29 1.427-1.464 0-1.626-.653-1.7-1.427l-.547-5.132c-.015-.197-.03-.38-.103-.38-.133 0-.193.243-.207.35l-1.252 6.588H.077zM3.08 2.82C3.4 1.27 4.95.69 6.472 1.094L16.11 3.65c1.526.405 2.506 1.988 2.187 3.538l-.047.23c-.63.169-1.279.568-1.758 1.51l-2.615 5.162c-.074.152-.252.486-.414.486-.163 0-.192-.303-.207-.486l-.599-5.509c-.175-1.654-1.51-1.633-2.398-1.638l-8.025-.001.847-4.121z"/></g></svg>